<svg xmlns="http://www.w3.org/2000/svg" viewBox="0 0 520 360">
  <rect width="520" height="360" fill="#f5f7f9"/>
  <rect x="58" y="56" width="342" height="198" rx="20" fill="#e8eef3" stroke="#c3ced9" stroke-width="7"/>
  <rect x="91" y="88" width="276" height="112" rx="9" fill="#142642"/>
  <g stroke="#536a82" stroke-width="6"><path d="M114 115h230M114 144h230M114 173h230"/></g>
  <circle cx="228" cy="144" r="44" fill="none" stroke="#dfe7ee" stroke-width="13"/>
  <g stroke="#8aa0b5" stroke-width="6"><path d="M228 100v88M184 144h88M197 113l62 62M259 113l-62 62"/></g>
  <circle cx="408" cy="102" r="23" fill="#ff520d"/>
  <path d="M397 102l8 8 15-19" fill="none" stroke="#fff" stroke-width="6" stroke-linecap="round" stroke-linejoin="round"/>
  <path d="M385 210c19-29 65-25 79 8l20 50-41 18-14-35-27 28z" fill="#061933"/>
  <circle cx="429" cy="160" r="28" fill="#b98055"/><path d="M397 154c20-31 67-24 78 9-27-8-51-8-78-9z" fill="#061933"/>
  <path d="M375 229l-37-28" stroke="#b98055" stroke-width="14" stroke-linecap="round"/>
</svg>
