<svg xmlns="http://www.w3.org/2000/svg" viewBox="0 0 520 360">
  <defs>
    <linearGradient id="sky" x1="0" x2="1" y1="0" y2="1"><stop stop-color="#f4f8fb"/><stop offset="1" stop-color="#dfe9f2"/></linearGradient>
    <linearGradient id="navy" x1="0" x2="1"><stop stop-color="#061933"/><stop offset="1" stop-color="#12335c"/></linearGradient>
  </defs>
  <rect width="520" height="360" fill="url(#sky)"/>
  <rect y="282" width="520" height="78" fill="#cfd9e4"/>
  <rect x="82" y="78" width="210" height="172" rx="14" fill="#eef2f5" stroke="#c0ccd8" stroke-width="6"/>
  <rect x="106" y="104" width="162" height="74" rx="6" fill="#152743"/>
  <circle cx="188" cy="214" r="35" fill="#dce5ee" stroke="#aebdcc" stroke-width="8"/>
  <path d="M164 214h48M188 190v48M171 197l34 34M205 197l-34 34" stroke="#7a8fa7" stroke-width="5"/>
  <circle cx="247" cy="130" r="8" fill="#ff520d"/><circle cx="226" cy="130" r="5" fill="#ffb48d"/>
  <path d="M324 140c22-28 69-21 82 11l21 52-42 16-17-41-30 29z" fill="url(#navy)"/>
  <circle cx="376" cy="92" r="32" fill="#b57b50"/><path d="M338 84c20-37 77-30 91 9-31-10-60-10-91-9z" fill="#061933"/>
  <path d="M346 116h58v35h-58z" fill="#061933"/>
  <path d="M339 204l-8 88h31l18-78zM405 210l27 82h32l-21-99z" fill="#102947"/>
  <path d="M314 158l-34-28M416 148l28-28" stroke="#b57b50" stroke-width="15" stroke-linecap="round"/>
  <path d="M267 121l24 22M439 118l23-20" stroke="#27364c" stroke-width="7" stroke-linecap="round"/>
</svg>
